<mxfile host="app.diagrams.net" modified="2020-11-17T00:00:17.278Z" agent="5.0 (Macintosh; Intel Mac OS X 10_15_7) AppleWebKit/537.36 (KHTML, like Gecko) Chrome/86.0.4240.193 Safari/537.36" etag="KnyVscvCzR7bSQx9Mw4U" version="13.8.8" type="github">
  <diagram id="QU7qdiWsfU6a7edic78I" name="Page-1">
    <mxGraphModel dx="1258" dy="786" grid="1" gridSize="10" guides="1" tooltips="1" connect="1" arrows="1" fold="1" page="1" pageScale="1" pageWidth="827" pageHeight="1169" math="0" shadow="0">
      <root>
        <mxCell id="0" />
        <mxCell id="1" parent="0" />
        <mxCell id="dER7OQD3nxIQlYEfe-vo-1" value="TDW" style="rounded=0;whiteSpace=wrap;html=1;" vertex="1" parent="1">
          <mxGeometry x="210" y="200" width="90" height="40" as="geometry" />
        </mxCell>
        <mxCell id="dER7OQD3nxIQlYEfe-vo-2" value="HIVE" style="rounded=0;whiteSpace=wrap;html=1;" vertex="1" parent="1">
          <mxGeometry x="210" y="260" width="90" height="40" as="geometry" />
        </mxCell>
        <mxCell id="dER7OQD3nxIQlYEfe-vo-3" value="&lt;b&gt;&lt;font style=&quot;font-size: 14px&quot;&gt;.&lt;br&gt;.&lt;br&gt;.&lt;br&gt;.&lt;/font&gt;&lt;/b&gt;" style="text;html=1;strokeColor=none;fillColor=none;align=center;verticalAlign=middle;whiteSpace=wrap;rounded=0;" vertex="1" parent="1">
          <mxGeometry x="235" y="330" width="40" height="20" as="geometry" />
        </mxCell>
        <mxCell id="dER7OQD3nxIQlYEfe-vo-4" value="" style="shape=curlyBracket;whiteSpace=wrap;html=1;rounded=1;rotation=-180;" vertex="1" parent="1">
          <mxGeometry x="330" y="200" width="20" height="170" as="geometry" />
        </mxCell>
        <mxCell id="dER7OQD3nxIQlYEfe-vo-5" value="" style="shape=flexArrow;endArrow=classic;html=1;" edge="1" parent="1">
          <mxGeometry width="50" height="50" relative="1" as="geometry">
            <mxPoint x="360" y="284.5" as="sourcePoint" />
            <mxPoint x="430" y="284.5" as="targetPoint" />
          </mxGeometry>
        </mxCell>
        <mxCell id="dER7OQD3nxIQlYEfe-vo-6" value="SQL" style="rounded=0;whiteSpace=wrap;html=1;" vertex="1" parent="1">
          <mxGeometry x="450" y="267.5" width="80" height="35" as="geometry" />
        </mxCell>
        <mxCell id="dER7OQD3nxIQlYEfe-vo-7" value="" style="shape=flexArrow;endArrow=classic;html=1;" edge="1" parent="1">
          <mxGeometry width="50" height="50" relative="1" as="geometry">
            <mxPoint x="550" y="284.5" as="sourcePoint" />
            <mxPoint x="620" y="284.5" as="targetPoint" />
          </mxGeometry>
        </mxCell>
        <mxCell id="dER7OQD3nxIQlYEfe-vo-8" value="Scheduled&lt;br&gt;Job" style="rounded=0;whiteSpace=wrap;html=1;" vertex="1" parent="1">
          <mxGeometry x="640" y="267.5" width="80" height="35" as="geometry" />
        </mxCell>
      </root>
    </mxGraphModel>
  </diagram>
</mxfile>
